<svg width="48" height="48" viewBox="0 0 48 48" fill="none" xmlns="http://www.w3.org/2000/svg">
  <!-- Memorable Icon: Precision Frame with Measurement -->
  
  <!-- Outer frame corners -->
  <path d="M4 4 L4 16 M4 4 L16 4" stroke="#1D7BC7" stroke-width="3.5" stroke-linecap="round" stroke-linejoin="round"/>
  <path d="M44 4 L44 16 M44 4 L32 4" stroke="#1D7BC7" stroke-width="3.5" stroke-linecap="round" stroke-linejoin="round"/>
  <path d="M4 44 L4 32 M4 44 L16 44" stroke="#1D7BC7" stroke-width="3.5" stroke-linecap="round" stroke-linejoin="round"/>
  <path d="M44 44 L44 32 M44 44 L32 44" stroke="#1D7BC7" stroke-width="3.5" stroke-linecap="round" stroke-linejoin="round"/>
  
  <!-- Ruler measurement marks (top edge) -->
  <rect x="18" y="6" width="2" height="6" fill="#FF7A00" rx="1"/>
  <rect x="23" y="6" width="2" height="4" fill="#FF7A00" rx="1"/>
  <rect x="28" y="6" width="2" height="6" fill="#FF7A00" rx="1"/>
  
  <!-- Ruler measurement marks (left edge) -->
  <rect x="6" y="18" width="6" height="2" fill="#FF7A00" rx="1"/>
  <rect x="6" y="23" width="4" height="2" fill="#FF7A00" rx="1"/>
  <rect x="6" y="28" width="6" height="2" fill="#FF7A00" rx="1"/>
  
  <!-- Center precision crosshair -->
  <circle cx="24" cy="24" r="8" stroke="#1D7BC7" stroke-width="2.5" fill="none"/>
  <line x1="19" y1="24" x2="29" y2="24" stroke="#1D7BC7" stroke-width="2"/>
  <line x1="24" y1="19" x2="24" y2="29" stroke="#1D7BC7" stroke-width="2"/>
  
  <!-- Small accent dots at crosshair ends -->
  <circle cx="19" cy="24" r="1.5" fill="#FF7A00"/>
  <circle cx="29" cy="24" r="1.5" fill="#FF7A00"/>
  <circle cx="24" cy="19" r="1.5" fill="#FF7A00"/>
  <circle cx="24" cy="29" r="1.5" fill="#FF7A00"/>
</svg>
