<svg width="280" height="44" viewBox="0 0 280 44" fill="none" xmlns="http://www.w3.org/2000/svg">
  <!-- Icon Mark -->
  <g id="icon-mark">
    <!-- Frame corners -->
    <path d="M2 2 L2 12 M2 2 L12 2" stroke="#1D7BC7" stroke-width="2.5" stroke-linecap="round" stroke-linejoin="round"/>
    <path d="M38 2 L38 12 M38 2 L28 2" stroke="#1D7BC7" stroke-width="2.5" stroke-linecap="round" stroke-linejoin="round"/>
    <path d="M2 38 L2 28 M2 38 L12 38" stroke="#1D7BC7" stroke-width="2.5" stroke-linecap="round" stroke-linejoin="round"/>
    <path d="M38 38 L38 28 M38 38 L28 38" stroke="#1D7BC7" stroke-width="2.5" stroke-linecap="round" stroke-linejoin="round"/>
    
    <!-- Ruler marks (top) -->
    <rect x="13" y="4" width="1.5" height="4" fill="#FF7A00" rx="0.5"/>
    <rect x="17" y="4" width="1.5" height="3" fill="#FF7A00" rx="0.5"/>
    <rect x="21" y="4" width="1.5" height="4" fill="#FF7A00" rx="0.5"/>
    <rect x="25" y="4" width="1.5" height="3" fill="#FF7A00" rx="0.5"/>
    
    <!-- Ruler marks (left) -->
    <rect x="4" y="13" width="4" height="1.5" fill="#FF7A00" rx="0.5"/>
    <rect x="4" y="17" width="3" height="1.5" fill="#FF7A00" rx="0.5"/>
    <rect x="4" y="21" width="4" height="1.5" fill="#FF7A00" rx="0.5"/>
    <rect x="4" y="25" width="3" height="1.5" fill="#FF7A00" rx="0.5"/>
    
    <!-- Center crosshair -->
    <circle cx="20" cy="20" r="5.5" stroke="#1D7BC7" stroke-width="1.8" fill="none"/>
    <line x1="16.5" y1="20" x2="23.5" y2="20" stroke="#1D7BC7" stroke-width="1.5"/>
    <line x1="20" y1="16.5" x2="20" y2="23.5" stroke="#1D7BC7" stroke-width="1.5"/>
  </g>

  <!-- CustomFrameSizes text using simple shapes -->
  <g id="text-custom" transform="translate(52, 10)">
    <!-- C -->
    <path d="M8 3 A8 8 0 0 0 8 21 M8 6 A5 5 0 0 0 8 18" stroke="#1D7BC7" stroke-width="2.5" fill="none" stroke-linecap="round"/>
    
    <!-- u -->
    <path d="M17 9 L17 16 A3 3 0 0 0 23 16 L23 9" stroke="#334155" stroke-width="2.5" fill="none" stroke-linecap="round"/>
    
    <!-- s -->
    <path d="M28 11 A2.5 2.5 0 0 1 33 11 A2.5 2.5 0 0 1 33 15 A2.5 2.5 0 0 0 28 15 A2.5 2.5 0 0 0 28 19" stroke="#334155" stroke-width="2.5" fill="none" stroke-linecap="round"/>
    
    <!-- t -->
    <path d="M37 6 L37 17 A2 2 0 0 0 41 17 M35 9 L39 9" stroke="#334155" stroke-width="2.5" fill="none" stroke-linecap="round"/>
    
    <!-- o -->
    <circle cx="47" cy="14.5" r="4.5" stroke="#334155" stroke-width="2.5" fill="none"/>
    
    <!-- m -->
    <path d="M56 19 L56 10 A3 3 0 0 1 62 10 L62 19 M62 10 A3 3 0 0 1 68 10 L68 19" stroke="#334155" stroke-width="2.5" fill="none" stroke-linecap="round"/>
    
    <!-- F -->
    <path d="M77 4 L77 20 M77 4 L85 4 M77 11 L83 11" stroke="#1D7BC7" stroke-width="2.5" fill="none" stroke-linecap="round"/>
    
    <!-- r -->
    <path d="M89 19 L89 10 A4 4 0 0 1 95 10" stroke="#334155" stroke-width="2.5" fill="none" stroke-linecap="round"/>
    
    <!-- a -->
    <circle cx="101" cy="14.5" r="4.5" stroke="#334155" stroke-width="2.5" fill="none"/>
    <line x1="105.5" y1="10" x2="105.5" y2="19" stroke="#334155" stroke-width="2.5" stroke-linecap="round"/>
    
    <!-- m -->
    <path d="M111 19 L111 10 A3 3 0 0 1 117 10 L117 19 M117 10 A3 3 0 0 1 123 10 L123 19" stroke="#334155" stroke-width="2.5" fill="none" stroke-linecap="round"/>
    
    <!-- e -->
    <circle cx="130" cy="14.5" r="4.5" stroke="#334155" stroke-width="2.5" fill="none"/>
    <line x1="126" y1="14" x2="134" y2="14" stroke="#334155" stroke-width="2.5" stroke-linecap="round"/>
    
    <!-- S -->
    <path d="M140 6 A4 4 0 0 1 148 6 A4 4 0 0 1 148 12 A4 4 0 0 0 140 12 A4 4 0 0 0 140 18" stroke="#1D7BC7" stroke-width="2.5" fill="none" stroke-linecap="round"/>
    
    <!-- i -->
    <line x1="153" y1="9" x2="153" y2="19" stroke="#334155" stroke-width="2.5" stroke-linecap="round"/>
    <circle cx="153" cy="6" r="1.2" fill="#334155"/>
    
    <!-- z -->
    <path d="M157 9 L165 9 L157 19 L165 19" stroke="#334155" stroke-width="2.5" fill="none" stroke-linecap="round"/>
    
    <!-- e -->
    <circle cx="172" cy="14.5" r="4.5" stroke="#334155" stroke-width="2.5" fill="none"/>
    <line x1="168" y1="14" x2="176" y2="14" stroke="#334155" stroke-width="2.5" stroke-linecap="round"/>
    
    <!-- s -->
    <path d="M180 11 A2.5 2.5 0 0 1 185 11 A2.5 2.5 0 0 1 185 15 A2.5 2.5 0 0 0 180 15 A2.5 2.5 0 0 0 180 19" stroke="#334155" stroke-width="2.5" fill="none" stroke-linecap="round"/>
  </g>

  <!-- .com -->
  <g id="dot-com" transform="translate(242, 18)">
    <circle cx="3" cy="3" r="2" fill="#64748B"/>
    <path d="M10 1 A4 4 0 0 0 10 9 M10 3 A2 2 0 0 0 10 7" stroke="#64748B" stroke-width="1.8" fill="none" stroke-linecap="round"/>
    <circle cx="18" cy="5" r="3" stroke="#64748B" stroke-width="1.8" fill="none"/>
    <path d="M24 9 L24 1 A3 3 0 0 1 30 1 L30 9 M30 1 A3 3 0 0 1 36 1 L36 9" stroke="#64748B" stroke-width="1.8" fill="none" stroke-linecap="round"/>
  </g>
</svg>
